<svg id="Layer_1" data-name="Layer 1" xmlns="http://www.w3.org/2000/svg" viewBox="0 0 65.12 65.12"><title>web-icons-stacked-nopadding-expanded</title><path d="M28.38,65.12H28.16A32.89,32.89,0,0,1,28.16,0a1.64,1.64,0,1,1,.44,3.24,29.61,29.61,0,0,0,0,58.6A1.64,1.64,0,0,1,28.38,65.12Z"/><path d="M36.74,65.12a1.64,1.64,0,0,1-.22-3.26,29.61,29.61,0,0,0,0-58.6A1.64,1.64,0,1,1,37,0a32.89,32.89,0,0,1,0,65.09H36.74Z"/><path d="M23.22,24.61a1.67,1.67,0,0,1,1.69-1.68h0.35a1.77,1.77,0,0,1,1.55.89l5.76,9,5.78-9a1.67,1.67,0,0,1,1.52-.86h0.35a1.67,1.67,0,0,1,1.69,1.68V40.53a1.66,1.66,0,0,1-1.69,1.66,1.68,1.68,0,0,1-1.65-1.66V29.13l-4.64,7a1.63,1.63,0,0,1-1.41.87,1.61,1.61,0,0,1-1.39-.87L26.5,29.18V40.56a1.63,1.63,0,0,1-1.65,1.63,1.6,1.6,0,0,1-1.63-1.63V24.61Z"/></svg>